
<svg aria-hidden="true" style="position: absolute; width: 0; height: 0; overflow: hidden;" version="1.1" xmlns="http://www.w3.org/2000/svg" xmlns:xlink="http://www.w3.org/1999/xlink">
<defs>
<symbol fill="#fa6d9c" id="icon-puzzle" viewBox="0 0 35 32">
<path d="M20.042 3.907c0-1.945-1.559-3.907-5.042-3.907-3.067 0-5.129 1.57-5.129 3.907 0 1.364 0.552 1.986 0.917 2.398 0.193 0.217 0.271 0.315 0.271 0.413 0 0.162 0 0.26-0.558 0.282h-6.098c-2.345 0-4.403 1.869-4.403 4v3.732c0.038 0.944 0.571 1.531 1.392 1.531 0.467 0 0.813-0.267 1.149-0.526 0.45-0.345 0.959-0.737 1.959-0.737 1.696 0 3.5 1.402 3.5 4 0 2.629-1.828 4.462-3.469 4.462-0.99 0-1.508-0.429-1.966-0.807-0.343-0.284-0.697-0.578-1.174-0.578-0.82 0-1.354 0.587-1.392 1.551v4.102c0.001 2.235 2.1 4.27 4.404 4.27h6.129c0.928-0.038 1.527-0.585 1.527-1.396 0-0.487-0.277-0.8-0.522-1.076-0.328-0.369-0.666-0.75-0.666-1.734 0-1.766 1.604-2.907 4.085-2.907s4.086 1.141 4.086 2.907c0 0.984-0.339 1.365-0.666 1.734-0.245 0.276-0.523 0.589-0.523 1.076 0 0.822 0.585 1.356 1.548 1.395l3.941 0.001c2.152 0 3.656-1.677 3.656-4.078v-4.65c0.026-0.122 0.334-0.588 0.804-0.588 0.096 0 0.193 0.079 0.409 0.271 0.41 0.367 1.031 0.922 2.393 0.922 2.184-0.001 4.396-1.675 4.396-4.877 0-3.454-2.009-5-4-5-1.344 0-2.12 0.614-2.634 1.020-0.228 0.18-0.442 0.35-0.564 0.35-0.471 0-0.779-0.468-0.802-0.571-0.001-0.008-0.001-0.016-0.002-0.024v-3.583c0-2.429-1.538-4.192-3.656-4.192h-3.921c-0.013-0.001-0.026-0.002-0.040-0.003-0.528-0.020-0.528-0.117-0.528-0.279 0-0.098 0.078-0.195 0.271-0.413 0.365-0.411 0.918-1.034 0.918-2.398zM18.376 5.642c-0.245 0.276-0.523 0.59-0.523 1.077 0 0.55 0.251 1.212 1.471 1.277 0.023 0.003 0.046 0.004 0.070 0.004h3.948c1.744 0 2.658 1.606 2.658 3.192v3.633c0 0.036-0.007 0.071 0 0.105 0.092 0.611 0.842 1.439 1.802 1.439 0.47 0 0.816-0.274 1.185-0.565 0.476-0.377 1.017-0.804 2.013-0.804 1.822 0 3 1.57 3 4 0 2.664-1.761 3.876-3.396 3.876-0.979 0-1.359-0.339-1.727-0.667-0.276-0.246-0.589-0.525-1.075-0.525-0.96 0-1.711 0.829-1.802 1.44-0.007 0.034 0 0.069 0 0.105v4.694c0 1.531-0.823 3.077-2.658 3.077h-3.921c-0.568-0.023-0.568-0.285-0.568-0.396 0-0.097 0.078-0.195 0.271-0.413 0.365-0.412 0.918-1.034 0.918-2.398 0-1.945-1.572-3.907-5.086-3.907-3.041 0-5.085 1.57-5.085 3.907 0 1.364 0.552 1.986 0.918 2.398 0.192 0.217 0.271 0.315 0.271 0.413 0 0.112 0 0.374-0.548 0.396h-6.109c-1.717 0-3.403-1.62-3.403-3.27v-4.082c0.022-0.571 0.281-0.571 0.392-0.571 0.116 0 0.32 0.169 0.537 0.348 0.498 0.413 1.253 1.037 2.603 1.037 2.157 0 4.468-2.195 4.468-5.462 0-3.248-2.318-5-4.5-5-1.34 0-2.079 0.568-2.568 0.945-0.222 0.171-0.414 0.318-0.54 0.318-0.11 0-0.369 0-0.392-0.551v-3.712c0-1.768 1.794-3 3.403-3h6.115c0.016 0 0.031-0.001 0.047-0.002v0c1.235-0.046 1.494-0.722 1.494-1.28 0-0.487-0.277-0.8-0.522-1.076-0.328-0.369-0.666-0.75-0.666-1.735 0-1.739 1.659-2.907 4.129-2.907 2.455 0 4.042 1.141 4.042 2.907 0 0.984-0.339 1.366-0.666 1.735z"></path>
</symbol>
<symbol fill="#14d368" id="icon-gamepad" viewBox="0 0 33 32">
<path d="M23.014 4.459c-1.416 0-4.166 2-6.5 2s-5.25-2-6.5-2c-8.583 0-13.5 23.082-7.083 23.082 5.417 0 6.146-6.75 13.562-6.75 6 0 9.521 6.668 13.521 6.668 6.416 0 1.584-23-7-23zM9.513 17.459c-2.485 0-4.5-2.016-4.5-4.5s2.015-4.5 4.5-4.5 4.5 2.015 4.5 4.5c0 2.484-2.014 4.5-4.5 4.5zM21.451 14.959c-0.553 0-1-0.447-1-1s0.447-1 1-1 1 0.447 1 1-0.447 1-1 1zM24.514 17.959c-0.553 0-1-0.447-1-1s0.447-1 1-1 1 0.447 1 1-0.448 1-1 1zM24.514 11.959c-0.553 0-1-0.447-1-1s0.447-1 1-1 1 0.447 1 1-0.448 1-1 1zM27.514 14.959c-0.553 0-1-0.447-1-1s0.447-1 1-1 1 0.447 1 1-0.448 1-1 1zM9.513 10.459c-1.38 0-2.5 1.119-2.5 2.5s1.12 2.5 2.5 2.5c1.381 0 2.5-1.119 2.5-2.5s-1.119-2.5-2.5-2.5z"></path>
</symbol>
<symbol fill="#9e78fe" id="icon-awareness-ribbon" viewBox="0 0 20 20">
<path d="M16.574 16.338c-0.757-1.051-2.851-3.824-4.57-6.106 0.696-0.999 1.251-1.815 1.505-2.242 1.545-2.594 0.874-4.26 0.022-5.67-0.854-1.411-0.989-2.226-3.531-2.226-2.543 0-2.678 0.815-3.531 2.227-0.854 1.41-1.524 3.076 0.021 5.67 0.254 0.426 0.809 1.243 1.506 2.242-1.72 2.281-3.814 5.055-4.571 6.106-0.176 0.244-0.16 0.664 0.009 1.082 0.13 0.322 0.63 1.762 0.752 2.064 0.156 0.389 0.664 0.67 1.082 0.092 0.241-0.334 2.582-3.525 4.732-6.522 2.149 2.996 4.491 6.188 4.732 6.522 0.417 0.578 0.926 0.297 1.082-0.092 0.122-0.303 0.622-1.742 0.752-2.064 0.167-0.419 0.184-0.839 0.008-1.083zM9.634 7.063c-1.068-1.484-1.832-3.211-1.832-3.211s0.42-0.758 2.198-0.758c1.778 0 2.198 0.758 2.198 0.758s-0.766 1.727-1.833 3.211c-0.088 0.121-0.218 0.297-0.365 0.497-0.149-0.2-0.279-0.376-0.366-0.497z"></path>
</symbol>
<symbol fill="#fa6d9c" id="icon-puzzle-piece" viewBox="0 0 26 28">
<path d="M26 17.156c0 1.609-0.922 2.953-2.625 2.953-1.906 0-2.406-1.734-4.125-1.734-1.25 0-1.719 0.781-1.719 1.937 0 1.219 0.5 2.391 0.484 3.594v0.078c-0.172 0-0.344 0-0.516 0.016-1.609 0.156-3.234 0.469-4.859 0.469-1.109 0-2.266-0.438-2.266-1.719 0-1.719 1.734-2.219 1.734-4.125 0-1.703-1.344-2.625-2.953-2.625-1.641 0-3.156 0.906-3.156 2.703 0 1.984 1.516 2.844 1.516 3.922 0 0.547-0.344 1.031-0.719 1.391-0.484 0.453-1.172 0.547-1.828 0.547-1.281 0-2.562-0.172-3.828-0.375-0.281-0.047-0.578-0.078-0.859-0.125l-0.203-0.031c-0.031-0.016-0.078-0.016-0.078-0.031v-16c0.063 0.047 0.984 0.156 1.141 0.187 1.266 0.203 2.547 0.375 3.828 0.375 0.656 0 1.344-0.094 1.828-0.547 0.375-0.359 0.719-0.844 0.719-1.391 0-1.078-1.516-1.937-1.516-3.922 0-1.797 1.516-2.703 3.172-2.703 1.594 0 2.938 0.922 2.938 2.625 0 1.906-1.734 2.406-1.734 4.125 0 1.281 1.156 1.719 2.266 1.719 1.797 0 3.578-0.406 5.359-0.5v0.031c-0.047 0.063-0.156 0.984-0.187 1.141-0.203 1.266-0.375 2.547-0.375 3.828 0 0.656 0.094 1.344 0.547 1.828 0.359 0.375 0.844 0.719 1.391 0.719 1.078 0 1.937-1.516 3.922-1.516 1.797 0 2.703 1.516 2.703 3.156z"></path>
</symbol>
<symbol ill="#ffae00" id="icon-automobile" viewBox="0 0 32 28">
<path d="M7.5 17c0-1.375-1.125-2.5-2.5-2.5s-2.5 1.125-2.5 2.5 1.125 2.5 2.5 2.5 2.5-1.125 2.5-2.5zM8.062 12h15.875l-1.391-5.578c-0.047-0.172-0.359-0.422-0.547-0.422h-12c-0.187 0-0.5 0.25-0.547 0.422zM29.5 17c0-1.375-1.125-2.5-2.5-2.5s-2.5 1.125-2.5 2.5 1.125 2.5 2.5 2.5 2.5-1.125 2.5-2.5zM32 15.5v6c0 0.281-0.219 0.5-0.5 0.5h-1.5v2c0 1.656-1.344 3-3 3s-3-1.344-3-3v-2h-16v2c0 1.656-1.344 3-3 3s-3-1.344-3-3v-2h-1.5c-0.281 0-0.5-0.219-0.5-0.5v-6c0-1.937 1.563-3.5 3.5-3.5h0.438l1.641-6.547c0.484-1.969 2.391-3.453 4.422-3.453h12c2.031 0 3.938 1.484 4.422 3.453l1.641 6.547h0.438c1.937 0 3.5 1.563 3.5 3.5z"></path>
</symbol>
<symbol fill="#0999f7" id="icon-directions_car" viewBox="0 0 24 24">
<path d="M5.016 11.016h13.969l-1.5-4.5h-10.969zM17.484 15.984q0.609 0 1.055-0.445t0.445-1.055-0.445-1.055-1.055-0.445-1.055 0.445-0.445 1.055 0.445 1.055 1.055 0.445zM6.516 15.984q0.609 0 1.055-0.445t0.445-1.055-0.445-1.055-1.055-0.445-1.055 0.445-0.445 1.055 0.445 1.055 1.055 0.445zM18.938 6l2.063 6v8.016q0 0.422-0.281 0.703t-0.703 0.281h-1.031q-0.422 0-0.703-0.281t-0.281-0.703v-1.031h-12v1.031q0 0.422-0.281 0.703t-0.703 0.281h-1.031q-0.422 0-0.703-0.281t-0.281-0.703v-8.016l2.063-6q0.281-0.984 1.453-0.984h10.969q1.172 0 1.453 0.984z"></path>
</symbol>
<symbol fill="#fa6d9c" id="icon-beach_access" viewBox="0 0 24 24">
<path d="M17.391 8.813q-2.344-2.344-5.414-3.094t-5.977 0.234q2.25-0.281 4.945 0.867t4.992 3.445l-5.719 5.719q-2.297-2.297-3.445-4.992t-0.867-4.945q-0.984 2.906-0.234 5.977t3.094 5.414l-2.859 2.859q-2.953-2.953-2.953-7.148t2.953-7.148q0-0.047 0.047-0.047 3.281-3.281 7.875-2.906 3.797 0.281 6.422 2.906zM13.078 14.578l1.453-1.453 6.422 6.469-1.453 1.406z"></path>
</symbol>
<symbol fill="#9e78fe" id="icon-family_restroom" viewBox="0 0 24 24">
<path d="M15.984 3.984q0-0.797 0.586-1.383t1.43-0.586 1.43 0.586 0.586 1.383q0 0.844-0.586 1.43t-1.43 0.586-1.43-0.586-0.586-1.43zM20.016 21.984v-6h2.484l-2.531-7.594q-0.234-0.656-0.75-1.031t-1.172-0.375h-0.094q-0.656 0-1.172 0.375t-0.75 1.031l-0.844 2.578q0.797 0.422 1.313 1.242t0.516 1.805v7.969h3zM12.516 11.484q0.609 0 1.055-0.422t0.445-1.078q0-0.609-0.445-1.055t-1.055-0.445q-0.656 0-1.078 0.445t-0.422 1.055q0 0.656 0.422 1.078t1.078 0.422zM5.484 6q0.844 0 1.43-0.586t0.586-1.43q0-0.797-0.586-1.383t-1.43-0.586q-0.797 0-1.383 0.586t-0.586 1.383q0 0.844 0.586 1.43t1.383 0.586zM7.5 21.984v-6.984h1.5v-6q0-0.844-0.586-1.43t-1.43-0.586h-3q-0.797 0-1.383 0.586t-0.586 1.43v6h1.5v6.984h3.984zM14.016 21.984v-3.984h0.984v-3.984q0-0.609-0.445-1.055t-1.055-0.445h-2.016q-0.609 0-1.055 0.445t-0.445 1.055v3.984h1.031v3.984h3z"></path>
</symbol>
<symbol fill="#0999f7" id="icon-home" viewBox="0 0 32 32">
<path d="M32 19l-6-6v-9h-4v5l-6-6-16 16v1h4v10h10v-6h4v6h10v-10h4z"></path>
</symbol>
<symbol fill="#14d368" id="icon-book" viewBox="0 0 32 32">
<path d="M28 4v26h-21c-1.657 0-3-1.343-3-3s1.343-3 3-3h19v-24h-20c-2.2 0-4 1.8-4 4v24c0 2.2 1.8 4 4 4h24v-28h-2z"></path>
<path d="M7.002 26v0c-0.001 0-0.001 0-0.002 0-0.552 0-1 0.448-1 1s0.448 1 1 1c0.001 0 0.001-0 0.002-0v0h18.997v-2h-18.997z"></path>
</symbol>
<symbol fill="#0999f7" background="#0999f7" id="icon-rocket" viewBox="0 0 32 32">
<path d="M22 2l-10 10h-6l-6 8c0 0 6.357-1.77 10.065-0.94l-10.065 12.94 13.184-10.255c1.839 4.208-1.184 10.255-1.184 10.255l8-6v-6l10-10 2-10-10 2z"></path>
</symbol>
<symbol id="icon-man-woman" viewBox="0 0 32 32">
<path d="M8 3c0 1.657-1.343 3-3 3s-3-1.343-3-3c0-1.657 1.343-3 3-3s3 1.343 3 3z"></path>
<path d="M26 3c0 1.657-1.343 3-3 3s-3-1.343-3-3c0-1.657 1.343-3 3-3s3 1.343 3 3z"></path>
<path d="M8 8h-6c-1.105 0-2 0.895-2 2v10h2v12h2.5v-12h1v12h2.5v-12h2v-10c0-1.105-0.895-2-2-2z"></path>
<path d="M30.469 16l1.531-1.109-4.165-6.441c-0.185-0.281-0.499-0.45-0.835-0.45h-8c-0.336 0-0.65 0.169-0.835 0.45l-4.165 6.441 1.531 1.109 3.458-4.487 1.202 2.804-4.191 7.683h3.833l0.667 10h2v-10h1v10h2l0.667-10h3.833l-4.191-7.683 1.202-2.804 3.458 4.487z"></path>
</symbol>
</defs>
</svg>